<svg xmlns="http://www.w3.org/2000/svg" width="755.864" height="240" viewBox="0 0 755.864 240"><path d="M28.896 48.44a7.822 7.822 0 1 0 0 15.645 7.822 7.822 0 0 0 0-15.645zm0 24.64a7.822 7.822 0 1 0 0 15.645 7.822 7.822 0 0 0 0-15.644zm0 24.641a7.822 7.822 0 1 0 0 15.645 7.822 7.822 0 0 0 0-15.645zm0 24.64a7.822 7.822 0 1 0 0 15.645 7.822 7.822 0 0 0 0-15.644zm0 24.641a7.822 7.822 0 1 0 0 15.645 7.822 7.822 0 0 0 0-15.645zm0 24.64a7.822 7.822 0 1 0 0 15.645 7.822 7.822 0 0 0 0-15.645zM9.934 97.722a7.822 7.822 0 1 0 0 15.644 7.822 7.822 0 0 0 0-15.645zm0 24.64a7.822 7.822 0 1 0 0 15.644 7.822 7.822 0 0 0 0-15.644zm0 24.64a7.822 7.822 0 1 0 0 15.645 7.822 7.822 0 0 0 0-15.645zm0 24.64a7.822 7.822 0 1 0 0 15.645 7.822 7.822 0 0 0 0-15.645zm56.886-49.28a7.822 7.822 0 1 0 0 15.644 7.822 7.822 0 0 0 0-15.644zm0 24.64a7.822 7.822 0 1 0 0 15.645 7.822 7.822 0 0 0 0-15.645zm0 24.64a7.822 7.822 0 1 0 0 15.645 7.822 7.822 0 0 0 0-15.645zM47.858 73.081a7.822 7.822 0 1 0 0 15.644 7.822 7.822 0 0 0 0-15.644zm0 24.64a7.822 7.822 0 1 0 0 15.645 7.822 7.822 0 0 0 0-15.645zm0 24.64a7.822 7.822 0 1 0 0 15.645 7.822 7.822 0 0 0 0-15.644zm0 24.641a7.822 7.822 0 1 0 0 15.645 7.822 7.822 0 0 0 0-15.645zm0 24.64a7.822 7.822 0 1 0 0 15.645 7.822 7.822 0 0 0 0-15.645zm56.886-24.64a7.822 7.822 0 1 0 0 15.645 7.822 7.822 0 0 0 0-15.645zm0 24.64a7.822 7.822 0 1 0 0 15.645 7.822 7.822 0 0 0 0-15.645zm-18.962-73.92a7.822 7.822 0 1 0 0 15.644 7.822 7.822 0 0 0 0-15.645zm0 24.64a7.822 7.822 0 1 0 0 15.644 7.822 7.822 0 0 0 0-15.644zm0 24.64a7.822 7.822 0 1 0 0 15.645 7.822 7.822 0 0 0 0-15.645zm0 24.64a7.822 7.822 0 1 0 0 15.645 7.822 7.822 0 0 0 0-15.645zm56.886-107.557a7.822 7.822 0 1 0 0-15.645 7.822 7.822 0 0 0 0 15.645zm0 8.996a7.822 7.822 0 1 0 0 15.644 7.822 7.822 0 0 0 0-15.644zm0 24.64a7.822 7.822 0 1 0 0 15.645 7.822 7.822 0 0 0 0-15.645zm0 24.64a7.822 7.822 0 1 0 0 15.645 7.822 7.822 0 0 0 0-15.644zm0 24.641a7.822 7.822 0 1 0 0 15.645 7.822 7.822 0 0 0 0-15.645zm0 24.64a7.822 7.822 0 1 0 0 15.645 7.822 7.822 0 0 0 0-15.645zm-18.962-73.92a7.822 7.822 0 1 0 0 15.644 7.822 7.822 0 0 0 0-15.645zm0 24.64a7.822 7.822 0 1 0 0 15.644 7.822 7.822 0 0 0 0-15.644zm0 24.64a7.822 7.822 0 1 0 0 15.645 7.822 7.822 0 0 0 0-15.645zm0 24.64a7.822 7.822 0 1 0 0 15.645 7.822 7.822 0 0 0 0-15.645z" fill="#5295a9"/><path d="M305.714 173.053l-21.748-21.95c-15.889 17.125-38.521 16.393-38.521 16.393h-.707c-16.419 0-29.706-13.312-29.706-29.705v-7.603h100.205v-22.582c0-1.137-.025-2.299-.076-3.436-1.819-34.858-30.867-62.82-66.154-62.82h-9.523c-35.49 0-64.538 29.048-64.538 64.563v26.851c0 35.49 29.048 64.538 64.538 64.538h20.611c17.126 0 32.484-7.906 42.613-20.233a59.318 59.318 0 0 0 3.006-4.016zm-90.682-72.166c0-16.42 13.287-29.706 29.706-29.706 8.36 0 15.964 3.436 21.47 8.942 5.532 5.507 8.942 13.11 8.942 21.47v2.577h-60.118v-3.283zm207.457 61.76h-16.444c-6.138 0-11.14-5.002-11.14-11.14V75.905h27.584V46.25h-27.584V0H355.35v46.25h-18.59v29.655h18.59v78.481c0 23.593 19.298 42.916 42.916 42.916h24.224v-34.656zm76.082-62.089c0-1.743.176-3.46.505-5.102 2.4-11.999 13.034-21.092 25.714-21.092 7.25 0 13.842 2.955 18.616 7.73 4.774 4.774 7.73 11.366 7.73 18.616v96.592h39.53V87.474c0-25.36-20.762-46.124-46.123-46.124H525.32c-10.861 0-20.485 5.506-26.244 13.867V41.35h-41.072v155.952h40.567v-96.744zM704.36 41.35h-37.637c-14.625 0-27.634 7.325-35.515 18.465l26.295 26.118c3.537-7.73 11.342-13.135 20.36-13.135h14.423c12.402 0 22.557 10.154 22.557 22.557v9.068h-47.11c-4.243 0-8.335.606-12.225 1.717-17.227 4.926-30.311 20.006-32.256 38.269a42.086 42.086 0 0 0-.253 4.748v3.41c0 24.603 20.132 44.735 44.735 44.735h20.182c10.836 0 20.536-5.001 26.927-12.807v12.807h41.021V92.854c0-28.341-23.163-51.504-51.504-51.504zm10.483 107.075c0 9.396-7.705 17.1-17.126 17.1h-19.88c-9.396 0-17.1-7.704-17.1-17.1 0-4.698 1.92-8.992 5.026-12.1 3.107-3.106 7.376-5.026 12.074-5.026h37.006v17.126zM4.439 214.612H0v21.542h13.864v-3.567H4.44v-17.975zm7.96 1.317c-.03 1.421-.469 2.795-1.316 4.127l2.012 1.17a7.935 7.935 0 0 0 1.968-2.62c.494-1.036.74-1.996.74-2.884v-2.294H12.4v2.501zm11.141 10.86h8.523v-3.447H23.54v-5.136h9.973v-3.594H19.101v21.542h14.442v-3.567H23.54v-5.799zm8.552-17.99h-4.66l-2.915 4.585h3.477l4.098-4.586zm9.032 10.747c.736-1.061 1.843-1.591 3.322-1.591 1.362 0 2.375.313 3.04.94.666.626 1.053 1.635 1.162 3.026h4.439c-.237-2.407-1.115-4.277-2.633-5.607-1.52-1.332-3.522-1.998-6.008-1.998-1.795 0-3.37.422-4.726 1.266-1.357.843-2.4 2.054-3.13 3.63-.73 1.58-1.095 3.405-1.095 5.477v1.315c0 3.246.79 5.799 2.375 7.656 1.583 1.86 3.755 2.79 6.517 2.79 2.524 0 4.56-.666 6.104-1.998 1.543-1.332 2.399-3.155 2.566-5.473h-4.439c-.098 1.312-.486 2.281-1.161 2.908-.675.626-1.699.937-3.07.937-1.519 0-2.631-.535-3.337-1.61-.705-1.076-1.058-2.778-1.058-5.107v-1.625c.02-2.23.397-3.876 1.132-4.936zm28.157-3.935c-1.396-.863-2.99-1.295-4.787-1.295-1.794 0-3.39.432-4.786 1.295-1.395.864-2.476 2.1-3.24 3.713-.765 1.613-1.146 3.48-1.146 5.602v1.063c.01 2.072.4 3.905 1.168 5.498.77 1.591 1.855 2.817 3.255 3.676 1.4.858 2.994 1.287 4.779 1.287 1.806 0 3.405-.434 4.802-1.302 1.394-.868 2.468-2.102 3.217-3.698.75-1.598 1.125-3.458 1.125-5.58v-.96c0-2.11-.382-3.973-1.147-5.586s-1.845-2.85-3.24-3.713zm-.11 10.333c-.01 2.24-.415 3.945-1.214 5.114-.8 1.17-1.943 1.751-3.433 1.751-1.518 0-2.683-.604-3.492-1.818-.809-1.213-1.213-2.92-1.213-5.12v-1.049c.01-2.24.419-3.94 1.228-5.099s1.959-1.739 3.447-1.739c1.5 0 2.653.587 3.463 1.762.809 1.174 1.213 2.89 1.213 5.15v1.048zm12.16-11.332h-4.439v21.542h13.865v-3.567H81.33v-17.975zm16.409 12.176h8.523v-3.446H97.74v-5.136h9.973v-3.594H93.301v21.542h14.442v-3.567H97.74v-5.799zm31.862-10.896c-1.494-.853-3.188-1.28-5.082-1.28h-6.63v21.542h6.675c1.883-.01 3.575-.444 5.074-1.302 1.5-.859 2.661-2.065 3.484-3.624.824-1.559 1.236-3.34 1.236-5.343v-.989c0-2.003-.42-3.791-1.258-5.365-.838-1.574-2.004-2.785-3.5-3.639zm.259 10.126c-.02 2.112-.489 3.735-1.405 4.87-.918 1.135-2.245 1.7-3.98 1.7h-2.146v-14.382h2.19c1.746 0 3.073.565 3.98 1.695.907 1.13 1.36 2.79 1.36 4.98v1.137zm12.162.77h8.523v-3.446h-8.523v-5.136h9.973v-3.594h-14.412v21.542h14.442v-3.567h-10.003v-5.799zm20.241-8.937c1.125 0 1.998.274 2.62.821.621.548.931 1.315.931 2.302h4.439c0-1.293-.333-2.447-.998-3.463-.666-1.014-1.6-1.801-2.805-2.359-1.202-.557-2.574-.836-4.113-.836-1.528 0-2.907.257-4.134.77-1.229.513-2.17 1.226-2.827 2.138-.656.91-.983 1.95-.983 3.114 0 2.24 1.222 4.02 3.67 5.34.896.484 2.114.974 3.654 1.473 1.538.498 2.603.972 3.195 1.42.592.45.887 1.093.887 1.932 0 .77-.295 1.37-.887 1.798-.592.427-1.416.642-2.471.642-2.84 0-4.26-1.187-4.26-3.565h-4.454c0 1.391.358 2.615 1.072 3.668.715 1.056 1.754 1.887 3.115 2.494 1.36.607 2.87.91 4.527.91 2.387 0 4.286-.53 5.697-1.59 1.41-1.061 2.115-2.522 2.115-4.387 0-1.677-.577-3.078-1.73-4.203-1.155-1.125-2.995-2.065-5.52-2.824-1.37-.415-2.409-.859-3.114-1.332-.706-.474-1.058-1.061-1.058-1.762 0-.75.3-1.354.902-1.813.602-.459 1.446-.688 2.53-.688zm16.32.355h6.51v17.948h4.439v-17.948h6.598v-3.594h-17.547v3.594zm24.516 8.582h8.522v-3.446H203.1v-5.136h9.973v-3.594h-14.412v21.542h14.442v-3.567H203.1v-5.799zm17.584-7.242c.735-1.061 1.843-1.591 3.322-1.591 1.361 0 2.375.313 3.04.94.666.626 1.053 1.635 1.162 3.026h4.439c-.237-2.407-1.115-4.277-2.634-5.607-1.52-1.332-3.52-1.998-6.007-1.998-1.795 0-3.371.422-4.727 1.266-1.356.843-2.4 2.054-3.13 3.63-.73 1.58-1.094 3.405-1.094 5.477v1.315c0 3.246.79 5.799 2.374 7.656 1.584 1.86 3.756 2.79 6.517 2.79 2.525 0 4.56-.666 6.104-1.998 1.543-1.332 2.4-3.155 2.567-5.473h-4.439c-.099 1.312-.486 2.281-1.162 2.908-.674.626-1.698.937-3.07.937-1.518 0-2.63-.535-3.336-1.61s-1.058-2.778-1.058-5.107v-1.625c.02-2.23.397-3.876 1.132-4.936zm27.942 3.796h-8.656v-8.73h-4.439v21.542h4.44v-9.233h8.655v9.233h4.44v-21.542h-4.44v8.73zm21.41 5.474l-8.657-14.204h-4.439v21.542h4.44V221.98l8.64 14.174h4.44v-21.542h-4.425v14.204zm21.608-13.205c-1.396-.863-2.991-1.295-4.787-1.295-1.794 0-3.39.432-4.787 1.295-1.395.864-2.475 2.1-3.24 3.713-.764 1.613-1.145 3.48-1.145 5.602v1.063c.01 2.072.4 3.905 1.168 5.498.77 1.591 1.855 2.817 3.254 3.676 1.402.858 2.995 1.287 4.78 1.287 1.805 0 3.405-.434 4.801-1.302 1.395-.868 2.468-2.102 3.218-3.698.75-1.598 1.125-3.458 1.125-5.58v-.96c0-2.11-.382-3.973-1.147-5.586-.765-1.614-1.845-2.85-3.24-3.713zm-.111 10.333c-.01 2.24-.415 3.945-1.214 5.114s-1.942 1.751-3.432 1.751c-1.519 0-2.683-.604-3.492-1.818-.809-1.213-1.214-2.92-1.214-5.12v-1.049c.01-2.24.42-3.94 1.229-5.099.809-1.16 1.958-1.739 3.447-1.739 1.5 0 2.653.587 3.462 1.762.81 1.174 1.214 2.89 1.214 5.15v1.048zm12.162-11.332h-4.439v21.542h13.865v-3.567h-9.426v-17.975zm24.332 1c-1.396-.864-2.99-1.296-4.787-1.296-1.794 0-3.39.432-4.786 1.295-1.395.864-2.476 2.1-3.24 3.713-.765 1.613-1.146 3.48-1.146 5.602v1.063c.01 2.072.4 3.905 1.168 5.498.77 1.591 1.855 2.817 3.255 3.676 1.4.858 2.994 1.287 4.78 1.287 1.805 0 3.404-.434 4.8-1.302 1.396-.868 2.469-2.102 3.218-3.698.75-1.598 1.125-3.458 1.125-5.58v-.96c0-2.11-.382-3.973-1.147-5.586-.764-1.614-1.845-2.85-3.24-3.713zm-.11 10.332c-.01 2.24-.415 3.945-1.214 5.114s-1.943 1.751-3.433 1.751c-1.518 0-2.683-.604-3.492-1.818-.809-1.213-1.213-2.92-1.213-5.12v-1.049c.01-2.24.42-3.94 1.228-5.099.81-1.16 1.959-1.739 3.447-1.739 1.5 0 2.653.587 3.463 1.762.809 1.174 1.213 2.89 1.213 5.15v1.048zm12.9-6.346c.79-1.135 1.94-1.703 3.448-1.703 1.184 0 2.114.287 2.788.859.676.572 1.113 1.475 1.31 2.708h4.32c-.266-2.328-1.12-4.1-2.559-5.318-1.44-1.219-3.438-1.828-5.993-1.828-1.834 0-3.435.417-4.801 1.25-1.365.835-2.411 2.038-3.137 3.61-.724 1.573-1.086 3.436-1.086 5.587v1.463c.02 2.091.41 3.912 1.175 5.461.765 1.547 1.85 2.728 3.255 3.542 1.406.814 3.042 1.221 4.905 1.221 1.776 0 3.393-.264 4.854-.791 1.459-.528 2.588-1.27 3.388-2.228v-8.594h-8.479v3.268h4.04v3.715c-.71.708-1.9 1.063-3.566 1.063-1.656 0-2.914-.574-3.773-1.729s-1.288-2.861-1.288-5.12v-1.375c.01-2.24.41-3.927 1.2-5.061zm15.743 16.556H361v-21.542h-4.439v21.542zm12.99-9.366h8.523v-3.446h-8.523v-5.136h9.972v-3.594h-14.41v21.542h14.44v-3.567H369.55v-5.799zm20.241-8.937c1.125 0 1.996.274 2.617.821.622.548.933 1.315.933 2.302h4.44c0-1.293-.333-2.447-1-3.463-.665-1.014-1.6-1.801-2.804-2.359-1.204-.557-2.573-.836-4.112-.836-1.53 0-2.908.257-4.137.77-1.228.513-2.168 1.226-2.824 2.138-.656.91-.984 1.95-.984 3.114 0 2.24 1.223 4.02 3.668 5.34.898.484 2.116.974 3.655 1.473 1.54.498 2.603.972 3.195 1.42.592.45.888 1.093.888 1.932 0 .77-.296 1.37-.888 1.798-.592.427-1.414.642-2.47.642-2.841 0-4.262-1.187-4.262-3.565h-4.452c0 1.391.357 2.615 1.073 3.668.715 1.056 1.75 1.887 3.113 2.494 1.361.607 2.87.91 4.529.91 2.385 0 4.284-.53 5.695-1.59 1.411-1.061 2.117-2.522 2.117-4.387 0-1.677-.577-3.078-1.732-4.203-1.154-1.125-2.995-2.065-5.518-2.824-1.372-.415-2.41-.859-3.116-1.332-.705-.474-1.058-1.061-1.058-1.762 0-.75.301-1.354.903-1.813.602-.459 1.446-.688 2.531-.688zm31.634 10.965l-8.656-14.204h-4.438v21.542h4.438V221.98l8.64 14.174h4.438v-21.542h-4.422v14.204zm20.15.133c-.04 2.625-1.307 3.934-3.8 3.934-1.195 0-2.13-.32-2.806-.967-.675-.646-1.013-1.674-1.013-3.085v-14.219h-4.438v14.352c.03 2.328.784 4.156 2.262 5.488 1.48 1.332 3.478 1.998 5.994 1.998 2.553 0 4.569-.685 6.044-2.057 1.475-1.371 2.212-3.234 2.212-5.592v-14.189h-4.455v14.337zm19.426 1.288l-5.533-15.625h-5.8v21.542h4.439v-5.888l-.444-10.15 5.799 16.038h3.049l5.814-16.053-.444 10.165v5.888h4.455v-21.542h-5.832l-5.503 15.625zm24.105-16.853l4.097-4.586h-4.66l-2.915 4.586h3.478zm-4.455 13.404h8.523v-3.446h-8.523v-5.136h9.973v-3.594h-14.41v21.542h14.44v-3.567H480.65v-5.799zm27.615-1.988c.637-.982.955-2.208.955-3.678 0-2.072-.69-3.673-2.072-4.808s-3.345-1.702-5.888-1.702h-8.005v21.542h4.438v-7.886h3.537l4.038 7.886h4.766v-.207l-4.662-8.804c1.293-.582 2.257-1.364 2.893-2.343zm-4.403-.977c-.611.567-1.475.851-2.587.851h-3.582v-6.468h3.567c1.191 0 2.077.291 2.654.873.577.583.866 1.382.866 2.398 0 .997-.306 1.779-.918 2.346zm9.014 12.331h4.438v-21.542h-4.438v21.542zm21.83-20.543c-1.396-.863-2.992-1.295-4.785-1.295-1.796 0-3.392.432-4.788 1.295-1.396.864-2.474 2.1-3.239 3.713-.764 1.613-1.147 3.48-1.147 5.602v1.063c.01 2.072.4 3.905 1.17 5.498.77 1.591 1.852 2.817 3.253 3.676s2.995 1.287 4.78 1.287c.563 0 1.103-.044 1.626-.133l4.588 3.683 2.825-2.499-3.58-2.812c1.155-.898 2.058-2.087 2.71-3.572.648-1.485.973-3.234.973-5.247v-.96c0-2.11-.382-3.973-1.144-5.586-.765-1.614-1.845-2.85-3.241-3.713zm-.11 10.333c-.01 2.24-.415 3.945-1.214 5.114-.8 1.17-1.944 1.751-3.431 1.751-1.52 0-2.684-.604-3.493-1.818-.81-1.213-1.214-2.92-1.214-5.12v-1.049c.01-2.24.42-3.94 1.229-5.099s1.958-1.739 3.448-1.739c1.497 0 2.652.587 3.46 1.762s1.215 2.89 1.215 5.15v1.048zm19.603 3.005c-.04 2.625-1.308 3.934-3.801 3.934-1.194 0-2.13-.32-2.805-.967-.676-.646-1.014-1.674-1.014-3.085v-14.219h-4.438v14.352c.03 2.328.785 4.156 2.262 5.488 1.48 1.332 3.479 1.998 5.995 1.998 2.553 0 4.568-.685 6.043-2.057 1.475-1.371 2.213-3.234 2.213-5.592v-14.189H554.2v14.337zm12.531-2.16h8.523v-3.447h-8.523v-5.136h9.973v-3.594h-14.41v21.542h14.44v-3.567H566.73v-5.799zm20.242-8.938c1.125 0 1.996.274 2.617.821.622.548.933 1.315.933 2.302h4.44c0-1.293-.333-2.447-1-3.463-.665-1.014-1.6-1.801-2.804-2.359-1.204-.557-2.573-.836-4.112-.836-1.53 0-2.908.257-4.137.77-1.228.513-2.168 1.226-2.824 2.138-.656.91-.984 1.95-.984 3.114 0 2.24 1.223 4.02 3.668 5.34.898.484 2.116.974 3.655 1.473 1.54.498 2.603.972 3.195 1.42.592.45.888 1.093.888 1.932 0 .77-.296 1.37-.888 1.798-.592.427-1.414.642-2.47.642-2.841 0-4.262-1.187-4.262-3.565h-4.452c0 1.391.357 2.615 1.073 3.668.715 1.056 1.751 1.887 3.113 2.494 1.361.607 2.871.91 4.529.91 2.385 0 4.284-.53 5.695-1.59 1.411-1.061 2.117-2.522 2.117-4.387 0-1.677-.577-3.078-1.732-4.203-1.154-1.125-2.994-2.065-5.518-2.824-1.371-.415-2.41-.859-3.115-1.332-.706-.474-1.059-1.061-1.059-1.762 0-.75.301-1.354.903-1.813s1.446-.688 2.531-.688zm24.737-3.239l-8.02 21.542h4.72l1.48-4.437h7.782l1.495 4.437h4.719l-8.064-21.542h-4.112zm-.622 13.508l2.679-8.064 2.706 8.064h-5.385zm26.515-13.508l-4.882 16.202-4.854-16.202h-4.926l7.472 21.542h4.63l7.501-21.542h-4.94zm12.058 0l-8.02 21.542h4.72l1.48-4.437h7.782l1.495 4.437h4.718l-8.063-21.542h-4.112zm-.622 13.508l2.679-8.064 2.706 8.064h-5.385zm27.906.696l-8.656-14.204h-4.437v21.542h4.437V221.98l8.642 14.174h4.437v-21.542h-4.423v14.204zm13.279-9.27c.735-1.061 1.843-1.591 3.323-1.591 1.359 0 2.373.313 3.039.94.666.626 1.053 1.635 1.161 3.026h4.438c-.234-2.407-1.112-4.277-2.632-5.607-1.52-1.332-3.522-1.998-6.006-1.998-1.796 0-3.373.422-4.73 1.266s-2.397 2.054-3.127 3.63c-.73 1.58-1.095 3.405-1.095 5.477v1.315c0 3.246.792 5.799 2.375 7.656 1.581 1.86 3.755 2.79 6.517 2.79 2.524 0 4.559-.666 6.103-1.998 1.544-1.332 2.398-3.155 2.566-5.473h-4.438c-.099 1.312-.486 2.281-1.162 2.908-.676.626-1.7.937-3.069.937-1.52 0-2.632-.535-3.337-1.61s-1.058-2.778-1.058-5.107v-1.625c.02-2.23.397-3.876 1.132-4.936zm19.285 7.242h8.523v-3.446h-8.523v-5.136h9.973v-3.594h-14.41v21.542h14.44v-3.567h-10.003v-5.799zm3.892-17.99l-2.915 4.586h3.478l4.097-4.586h-4.66zm13.153 17.99h8.523v-3.446h-8.523v-5.136h9.973v-3.594h-14.41v21.542h14.44v-3.567h-10.003v-5.799zm20.24-8.937c1.125 0 1.995.274 2.617.821.622.548.933 1.315.933 2.302h4.44c0-1.293-.333-2.447-1-3.463-.665-1.014-1.6-1.801-2.804-2.359-1.204-.557-2.573-.836-4.112-.836-1.53 0-2.908.257-4.137.77-1.228.513-2.168 1.226-2.824 2.138-.656.91-.985 1.95-.985 3.114 0 2.24 1.224 4.02 3.669 5.34.897.484 2.116.974 3.655 1.473 1.54.498 2.603.972 3.195 1.42s.888 1.093.888 1.932c0 .77-.296 1.37-.888 1.798-.592.427-1.414.642-2.47.642-2.841 0-4.262-1.187-4.262-3.565h-4.453c0 1.391.358 2.615 1.073 3.668.716 1.056 1.752 1.887 3.114 2.494s2.87.91 4.528.91c2.386 0 4.285-.53 5.696-1.59 1.411-1.061 2.117-2.522 2.117-4.387 0-1.677-.578-3.078-1.732-4.203-1.154-1.125-2.995-2.065-5.518-2.824-1.372-.415-2.41-.859-3.116-1.332-.705-.474-1.058-1.061-1.058-1.762 0-.75.301-1.354.903-1.813.602-.459 1.445-.688 2.53-.688z" fill="#343432"/></svg>